# xmcd
#
# Track frame offsets:
#	150
#	12612
#	22475
#	30842
#	41260
#	53297
#	65817
#	77670
#	85317
#	96145
#	106947
#	117060
#	126367
#	138957
#	151377
#	162400
#	172600
#	182742
#	193787
#	205010
#
# Disc length: 2844 seconds
#
# Revision: 2
# Processed by: cddbd v1.5.2PL0 Copyright (c) Steve Scherf et al.
# Submitted via: audiograbber 1.83.01
#
DISCID=fe0b1a14
DTITLE=Johnny Cash - 20 all-time original greatest hits
DYEAR=1993
DGENRE=Country
TTITLE0=I Walk the Line
TTITLE1=Ballad of a Teenage Queen
TTITLE2=Guess Things Happen That Way
TTITLE3=There You Go
TTITLE4=Home of the Blues
TTITLE5=Folsom Prison Blues
TTITLE6=So Doggone Lonesome
TTITLE7=Come in Stranger
TTITLE8=Train of Love
TTITLE9=I Just Thought You'd Like to Know
TTITLE10=Hey Porter
TTITLE11=Luther Played the Boogie
TTITLE12=Next in Line
TTITLE13=Give My Love to Rose
TTITLE14=Cry!  Cry!  Cry!
TTITLE15=Straight A's in Love
TTITLE16=Get Rhythm
TTITLE17=I Love You Because
TTITLE18=Don't Make Me Go
TTITLE19=Country Boy
EXTD=
EXTT0=
EXTT1=
EXTT2=
EXTT3=
EXTT4=
EXTT5=
EXTT6=
EXTT7=
EXTT8=
EXTT9=
EXTT10=
EXTT11=
EXTT12=
EXTT13=
EXTT14=
EXTT15=
EXTT16=
EXTT17=
EXTT18=
EXTT19=
PLAYORDER=
